<?xml version="1.0" encoding="UTF-8"?>
<svg id="Camada_1" data-name="Camada 1" xmlns="http://www.w3.org/2000/svg" viewBox="0 0 900 672.36">
  <path d="M867.59,163.06c-23.42-9.85-92.4-8.63-92.4-8.63-61.58-126.87-98.55-137.96-98.55-137.96-46.52-8.61-92.49-13.71-136.37-16.47-1.89,1.13-3.78,2.26-5.67,3.38-26.8-1.64-55.15-2.62-84.91-2.67-31.03-.06-60.54.91-88.38,2.59-1.86-1.01-3.71-2.02-5.57-3.03-42.69,2.82-87.28,7.84-132.41,16.2,0,0-36.94,11.09-98.54,137.96,0,0-68.99-1.22-92.38,8.63-23.4,9.87-48.04,39.43-19.72,51.73,28.34,12.32,81.3,8.63,81.3,8.63-6.04,6.7-11.31,12.75-15.75,17.96-9.36,10.97-11.17,13.62-12.25,17.88,0,0-.55,2.15-1.56,15.89,0,0-36.12,29.17-45.17,37.37-9.02,8.22-9.85,7.95-10.67,27.38-.83,19.43-3.28,303.58-3.28,303.58,0,0-1.24,27.09,28.32,28.32,29.57,1.25,77.61,0,77.61,0,0,0,24.64,2.47,25.87-24.62.57-12.73.61-17.84.49-19.7l-.49-.02s.34-2.09.49.02l90.66,3.68,50.51-16.02,6.17,8.62,165.06,1.25,165.06-1.25,6.17-8.62,50.49,16.02,90.67-3.68c.14-2.11.48-.02.48-.02l-.48.02c-.13,1.86-.09,6.97.48,19.7,1.25,27.09,25.87,24.62,25.87,24.62,0,0,48.06,1.25,77.6,0,29.57-1.23,28.34-28.32,28.34-28.32,0,0-2.47-284.15-3.27-303.58-.46-10.86-.92-15.57-2.82-19.04-2.59-4.74-6.3-7.22-7.87-8.34-9.01-6.41-24.1-18.56-45.05-35.92l-1.59-1.45c-1.01-13.74-1.56-15.89-1.56-15.89-1.09-4.26-2.89-6.91-12.26-17.88-4.44-5.21-9.71-11.26-15.75-17.96h2.19c11.36.72,20.8.81,27.56.74,35.02-.36,46.44-5.44,53.03-9.37,6.27-3.73,10.27-6.3,11.92-11.11,4.85-14.05-13.75-33.08-31.62-40.62ZM182.5,97.41c8.98-14.35,18.2-27.42,27.32-39.27,70.14-8.69,149.53-14.65,236.66-14.79,91-.15,173.68,6.09,246.29,15.21,8.74,11.68,17.54,24.61,26.07,38.85,22.88,38.18,37.25,74.82,46.5,105.89H132.6c10.53-31.44,26.18-67.96,49.9-105.89ZM33.63,379.87c-.61-6.17-1.22-20.33,0-28.34,1.25-8.01,5.96-15.39,13.36-19.29,7.38-3.91,32.84-2.05,32.84-2.05,0,0,44.55,15.59,67.55,22.17,22.99,6.57,95.67,22.59,95.67,22.59,9.03-9.45,29.15-12.75,29.15-12.75,0,0,117.02-1.62,142.08,0,25.05,1.65,27.92,27.12,27.92,27.12v27.09c0,9.85,0,16.02-6.57,23.4-6.58,7.4-11.5,8.43-29.36,8.43s6.15.61-66.53,0c-72.68-.63-93.41-46.77-93.41-46.77h-34.9l-31.82,21.52c-25.26,1.22-89.93-9.24-115.8-16.02-25.87-6.79-30.18-27.1-30.18-27.1ZM242.56,517.45c-5.63,19.03-26.25,49.17-26.25,49.17l-22.38,11.71c-40.03,16.63-63.43,11.08-98.55,6.15-35.1-4.92-36.94-14.77-41.87-41.25-4.92-26.51-4.92-81.31-4.92-81.31h19.7l23.41,29.57c32.04,10.12,135.59,22.57,149.71,24.24.83.09,1.4.92,1.15,1.72ZM634.77,592.97c-24.64,3.7-96.7,7.4-184.77,8.62-88.07-1.22-160.14-4.92-184.78-8.62-24.64-3.7-27.09-16.63-12.61-36.75,14.51-20.12,18.15-38.38,52.64-40.86,34.49-2.45,144.75-4.92,144.75-4.92,0,0,110.25,2.47,144.75,4.92,34.49,2.48,38.13,20.74,52.61,40.86,14.51,20.12,12.06,33.05-12.59,36.75ZM846.43,543.23c-4.94,26.48-6.78,36.33-41.88,41.25-35.11,4.93-58.52,10.48-98.55-6.15l-22.38-11.71s-20.6-30.14-26.25-49.15c-.25-.82.32-1.65,1.17-1.74,14.1-1.67,117.65-14.12,149.71-24.24l23.39-29.57h19.72s0,54.82-4.93,81.31ZM821.08,330.19s25.47-1.86,32.87,2.05c7.37,3.9,12.11,11.28,13.33,19.29,1.23,8.01.62,22.17,0,28.34,0,0-4.31,20.31-30.18,27.1-25.87,6.78-90.54,17.24-115.79,16.02l-31.83-21.52h-34.89s-20.74,46.14-93.42,46.77c-72.68.61-48.65,0-66.51,0s-22.8-1.03-29.37-8.43c-6.55-7.38-6.55-13.55-6.55-23.4v-27.09s2.87-25.47,27.91-27.12c25.05-1.62,142.07,0,142.07,0,0,0,20.12,3.3,29.14,12.75,0,0,72.68-16.02,95.68-22.59,22.99-6.58,67.54-22.17,67.54-22.17Z"/>
</svg>